<svg width="500" height="389" viewBox="0 0 500 389" fill="none" xmlns="http://www.w3.org/2000/svg">
   <g clip-path="url(#clip0_408_182)">
      <path
         d="M488.949 227.08C543.393 287.288 385.57 374.058 258.046 374.058C130.521 374.058 42.2941 306.827 27.1421 227.08C-9.59635 33.7199 340.163 -89.1785 258.046 80.1016C138.351 326.847 446.074 179.664 488.949 227.08Z"
         fill="#E6E6E6" />
      <path
         d="M464.521 241.329C518.965 301.538 361.142 388.307 233.618 388.307C106.093 388.307 17.8664 321.076 2.71437 241.329C-34.0241 47.9694 315.735 -74.929 233.618 94.3511C113.923 341.096 421.646 193.914 464.521 241.329Z"
         fill="#1C1C1C" />
      <path
         d="M76.13 100.167C37.9272 98.4847 8.30655 90.2441 8.69568 81.4061C8.92899 76.1074 19.7407 71.8466 38.3585 69.7166C38.4252 69.7085 38.4927 69.7137 38.5574 69.7319C38.622 69.75 38.6824 69.7807 38.7351 69.8223C38.7877 69.8639 38.8317 69.9155 38.8643 69.9741C38.897 70.0328 38.9177 70.0973 38.9254 70.164C38.933 70.2307 38.9274 70.2982 38.9088 70.3627C38.8902 70.4272 38.8591 70.4874 38.8171 70.5398C38.7752 70.5922 38.7233 70.6358 38.6644 70.668C38.6056 70.7003 38.5409 70.7206 38.4742 70.7278C20.9362 72.7344 9.9154 76.8433 9.71251 81.4508C9.36061 89.4431 39.7965 97.5482 76.1747 99.15C112.553 100.752 143.583 95.353 143.935 87.3607C144.139 82.7338 133.453 77.658 116.048 74.1146C115.982 74.1014 115.92 74.0754 115.864 74.0381C115.809 74.0007 115.761 73.9528 115.724 73.897C115.687 73.8412 115.661 73.7787 115.649 73.7129C115.636 73.6472 115.636 73.5796 115.649 73.514C115.663 73.4484 115.689 73.386 115.727 73.3306C115.764 73.2751 115.812 73.2275 115.868 73.1907C115.924 73.1538 115.986 73.1283 116.052 73.1157C116.118 73.1031 116.186 73.1036 116.251 73.1171C134.725 76.8783 145.186 82.0862 144.952 87.4055C144.563 96.2435 114.333 101.849 76.13 100.167Z"
         fill="#12B0C9" />
      <path
         d="M42.2007 101.647C45.3966 107.718 50.1308 112.843 55.9296 116.51C61.7284 120.177 68.3885 122.257 75.2435 122.541C82.0985 122.826 88.9081 121.305 94.9908 118.132C101.074 114.958 106.216 110.242 109.904 104.457C87.3019 104.762 64.7 103.824 42.2007 101.647V101.647Z"
         fill="#12B0C9" />
      <path
         d="M114.13 93.7521C116.053 87.983 116.608 81.8454 115.749 75.825C114.89 69.8047 112.642 64.0668 109.182 59.0657C105.722 54.0645 101.146 49.9372 95.815 47.0105C90.4843 44.0837 84.5455 42.4379 78.4688 42.2033C72.392 41.9686 66.344 43.1515 60.8035 45.6584C55.263 48.1653 50.382 51.9274 46.5468 56.6469C42.7116 61.3664 40.0275 66.9137 38.707 72.8499C37.3864 78.7861 37.4657 84.9481 38.9384 90.8484C63.7712 95.064 89.046 96.04 114.13 93.7521V93.7521Z"
         fill="#12B0C9" />
      <path
         d="M85.9215 67.4822C88.4511 67.4822 90.5017 65.4316 90.5017 62.902C90.5017 60.3724 88.4511 58.3218 85.9215 58.3218C83.3919 58.3218 81.3413 60.3724 81.3413 62.902C81.3413 65.4316 83.3919 67.4822 85.9215 67.4822Z"
         fill="white" />
      <path
         d="M62.3485 85.2893C66.5645 85.2893 69.9822 81.8716 69.9822 77.6557C69.9822 73.4397 66.5645 70.022 62.3485 70.022C58.1326 70.022 54.7148 73.4397 54.7148 77.6557C54.7148 81.8716 58.1326 85.2893 62.3485 85.2893Z"
         fill="white" />
      <path
         d="M177.562 77.8117C180.373 77.8117 182.651 75.5332 182.651 72.7227C182.651 69.9121 180.373 67.6337 177.562 67.6337C174.752 67.6337 172.473 69.9121 172.473 72.7227C172.473 75.5332 174.752 77.8117 177.562 77.8117Z"
         fill="#12B0C9" />
      <path
         d="M62.5477 233.539C64.2341 233.539 65.6012 232.172 65.6012 230.486C65.6012 228.799 64.2341 227.432 62.5477 227.432C60.8612 227.432 59.4941 228.799 59.4941 230.486C59.4941 232.172 60.8612 233.539 62.5477 233.539Z"
         fill="#E6E6E6" />
      <path
         d="M276.291 338.375C277.977 338.375 279.344 337.008 279.344 335.321C279.344 333.635 277.977 332.268 276.291 332.268C274.604 332.268 273.237 333.635 273.237 335.321C273.237 337.008 274.604 338.375 276.291 338.375Z"
         fill="#E6E6E6" />
      <path
         d="M77.3061 174.505C78.1493 174.505 78.8328 173.822 78.8328 172.978C78.8328 172.135 78.1493 171.452 77.3061 171.452C76.4629 171.452 75.7793 172.135 75.7793 172.978C75.7793 173.822 76.4629 174.505 77.3061 174.505Z"
         fill="#E6E6E6" />
      <path
         d="M203.517 288.502C204.36 288.502 205.043 287.818 205.043 286.975C205.043 286.132 204.36 285.448 203.517 285.448C202.673 285.448 201.99 286.132 201.99 286.975C201.99 287.818 202.673 288.502 203.517 288.502Z"
         fill="#E6E6E6" />
      <path
         d="M433.036 273.743C433.879 273.743 434.563 273.06 434.563 272.216C434.563 271.373 433.879 270.69 433.036 270.69C432.193 270.69 431.509 271.373 431.509 272.216C431.509 273.06 432.193 273.743 433.036 273.743Z"
         fill="#E6E6E6" />
      <path
         d="M361.279 319.036C362.122 319.036 362.806 318.353 362.806 317.51C362.806 316.666 362.122 315.983 361.279 315.983C360.436 315.983 359.752 316.666 359.752 317.51C359.752 318.353 360.436 319.036 361.279 319.036Z"
         fill="#E6E6E6" />
      <path
         d="M286.469 264.074C287.312 264.074 287.996 263.39 287.996 262.547C287.996 261.704 287.312 261.02 286.469 261.02C285.626 261.02 284.942 261.704 284.942 262.547C284.942 263.39 285.626 264.074 286.469 264.074Z"
         fill="#E6E6E6" />
      <path
         d="M189.776 113.436C190.619 113.436 191.303 112.752 191.303 111.909C191.303 111.066 190.619 110.382 189.776 110.382C188.933 110.382 188.249 111.066 188.249 111.909C188.249 112.752 188.933 113.436 189.776 113.436Z"
         fill="#E6E6E6" />
      <path
         d="M201.99 38.1167C202.833 38.1167 203.516 37.4331 203.516 36.5899C203.516 35.7467 202.833 35.0631 201.99 35.0631C201.146 35.0631 200.463 35.7467 200.463 36.5899C200.463 37.4331 201.146 38.1167 201.99 38.1167Z"
         fill="#E6E6E6" />
      <path
         d="M194.865 355.169C195.708 355.169 196.392 354.485 196.392 353.642C196.392 352.799 195.708 352.115 194.865 352.115C194.022 352.115 193.338 352.799 193.338 353.642C193.338 354.485 194.022 355.169 194.865 355.169Z"
         fill="#E6E6E6" />
      <path
         d="M119.546 323.108C120.389 323.108 121.073 322.424 121.073 321.581C121.073 320.738 120.389 320.054 119.546 320.054C118.703 320.054 118.019 320.738 118.019 321.581C118.019 322.424 118.703 323.108 119.546 323.108Z"
         fill="#E6E6E6" />
      <path
         d="M358.226 268.145C359.069 268.145 359.753 267.462 359.753 266.618C359.753 265.775 359.069 265.092 358.226 265.092C357.383 265.092 356.699 265.775 356.699 266.618C356.699 267.462 357.383 268.145 358.226 268.145Z"
         fill="#E6E6E6" />
      <path
         d="M75.5094 118.983C78.039 118.983 80.0896 116.932 80.0896 114.403C80.0896 111.873 78.039 109.823 75.5094 109.823C72.9798 109.823 70.9292 111.873 70.9292 114.403C70.9292 116.932 72.9798 118.983 75.5094 118.983Z"
         fill="white" />
      <path
         d="M240.736 225.9C243.618 224.052 240.113 213.443 232.908 202.204C225.703 190.964 217.526 183.351 214.644 185.198C211.762 187.046 215.267 197.655 222.472 208.894C229.677 220.133 237.854 227.747 240.736 225.9Z"
         fill="#1C1C1C" />
      <g clip-path="url(#clip1_408_182)">
         <path
            d="M404.066 242.212C412.845 242.212 419.962 235.096 419.962 226.317C419.962 217.538 412.845 210.421 404.066 210.421C395.287 210.421 388.17 217.538 388.17 226.317C388.17 235.096 395.287 242.212 404.066 242.212Z"
            fill="#2F2E41" />
         <path d="M398.021 236.76L390.285 240.635L392.447 244.952L400.184 241.078L398.021 236.76Z" fill="#2F2E41" />
         <path
            d="M393.467 244.514C393.926 243.818 392.794 242.263 390.939 241.039C389.083 239.816 387.207 239.388 386.748 240.084C386.289 240.78 387.422 242.336 389.277 243.559C391.133 244.782 393.009 245.21 393.467 244.514Z"
            fill="#2F2E41" />
         <path d="M410.111 236.76L407.948 241.078L415.684 244.952L417.847 240.635L410.111 236.76Z" fill="#2F2E41" />
         <path
            d="M418.855 243.559C420.71 242.335 421.842 240.78 421.384 240.084C420.925 239.388 419.049 239.816 417.193 241.039C415.338 242.263 414.205 243.818 414.664 244.514C415.123 245.21 416.999 244.782 418.855 243.559Z"
            fill="#2F2E41" />
         <path
            d="M402.953 227.861C405.954 227.861 408.386 225.429 408.386 222.429C408.386 219.428 405.954 216.996 402.953 216.996C399.953 216.996 397.521 219.428 397.521 222.429C397.521 225.429 399.953 227.861 402.953 227.861Z"
            fill="white" />
         <path
            d="M404.275 221.387C404.979 220.683 404.975 219.537 404.266 218.828C403.556 218.119 402.411 218.115 401.706 218.819C401.002 219.523 401.006 220.669 401.715 221.378C402.425 222.087 403.57 222.091 404.275 221.387Z"
            fill="#3F3D56" />
         <path
            d="M416.605 209.024C416.845 203.139 411.773 198.155 405.277 197.891C398.782 197.627 393.322 202.184 393.083 208.069C392.844 213.953 397.359 215.291 403.855 215.554C410.35 215.818 416.366 214.909 416.605 209.024Z"
            fill="#12B0C9" />
         <path
            d="M425.768 234.64C426.814 233.743 425.343 230.315 422.484 226.985C419.625 223.654 416.46 221.682 415.414 222.579C414.369 223.477 415.839 226.905 418.698 230.235C421.557 233.566 424.723 235.538 425.768 234.64Z"
            fill="#2F2E41" />
         <path
            d="M389.478 230.235C392.338 226.905 393.808 223.477 392.762 222.579C391.717 221.682 388.551 223.654 385.692 226.985C382.833 230.315 381.363 233.743 382.408 234.64C383.454 235.538 386.619 233.566 389.478 230.235Z"
            fill="#2F2E41" />
         <path
            d="M408.432 232.581C408.604 233.526 408.393 234.501 407.847 235.291C407.3 236.08 406.462 236.621 405.517 236.793C404.572 236.965 403.597 236.755 402.808 236.208C402.018 235.661 401.477 234.823 401.305 233.878L401.304 233.871C400.948 231.903 402.469 231.207 404.438 230.85C406.406 230.494 408.075 230.613 408.432 232.581Z"
            fill="white" />
         <path d="M410.597 122.76H335.444V173.462H410.597V122.76Z" fill="white" />
         <path d="M341.839 169.23H404.29V126.908H341.839V169.23Z" fill="#E5E5E5" />
         <path
            d="M359.579 155.585C363.199 155.585 366.134 152.65 366.134 149.03C366.134 145.41 363.199 142.475 359.579 142.475C355.958 142.475 353.023 145.41 353.023 149.03C353.023 152.65 355.958 155.585 359.579 155.585Z"
            fill="#1C1C1C" />
         <path
            d="M380.134 169.231H347.977C347.936 169.231 347.896 169.228 347.856 169.221L363.065 142.878C363.158 142.714 363.293 142.577 363.455 142.482C363.618 142.387 363.803 142.337 363.992 142.337C364.18 142.337 364.365 142.387 364.528 142.482C364.691 142.577 364.826 142.714 364.919 142.878L375.126 160.555L375.615 161.401L380.134 169.231Z"
            fill="#12B0C9" />
         <path opacity="0.2"
            d="M380.134 169.23H369.155L374.544 161.401L374.933 160.837L375.127 160.555L375.616 161.401L380.134 169.23Z"
            fill="black" />
         <path
            d="M398.039 169.23H370.226L375.615 161.401L376.003 160.837L383.026 150.635C383.15 150.479 383.306 150.351 383.483 150.259C383.66 150.167 383.854 150.114 384.053 150.102C384.252 150.09 384.451 150.12 384.638 150.19C384.824 150.26 384.994 150.369 385.136 150.509C385.172 150.549 385.206 150.591 385.237 150.635L398.039 169.23Z"
            fill="#12B0C9" />
         <path
            d="M438.782 56.6792C421.143 53.8642 401.056 52.3622 380.137 52.3622C360.992 52.3622 342.547 53.6183 326.04 55.9868C326.043 55.7333 326.047 55.4798 326.058 55.2263C326.496 40.5119 332.672 26.5524 343.266 16.3313C353.86 6.11026 368.032 0.438587 382.753 0.528519C397.473 0.618451 411.575 6.46286 422.043 16.8126C432.512 27.1623 438.517 41.1963 438.774 55.9149C438.778 56.1722 438.782 56.4257 438.782 56.6792Z"
            fill="#12B0C9" />
         <path opacity="0.1"
            d="M389.804 0.507499C381.975 -0.550028 374.011 0.0493474 366.428 2.26678C358.845 4.48421 351.812 8.2702 345.786 13.3794C339.76 18.4886 334.875 24.807 331.447 31.925C328.019 39.0431 326.125 46.802 325.888 54.6989C325.877 54.9524 325.873 55.2059 325.869 55.4594C330.773 54.7557 335.852 54.1528 341.066 53.6492C341.704 40.4934 346.927 27.9759 355.83 18.2689C364.732 8.56188 376.752 2.27794 389.804 0.507499V0.507499Z"
            fill="white" />
         <path
            d="M463.443 61.1514C455.324 58.9503 447.088 57.2021 438.774 55.9149C425.148 53.8034 411.411 52.4832 397.632 51.9611C391.892 51.7265 386.047 51.6055 380.137 51.6055C375.453 51.6055 370.807 51.6811 366.225 51.8325C352.784 52.2296 339.375 53.3626 326.058 55.2263C316.201 56.5837 306.439 58.5627 296.83 61.1514C274.428 67.3451 262.09 75.6462 262.09 84.5224C262.09 93.3987 274.428 101.7 296.83 107.893C312.585 112.252 332.01 115.222 353.175 116.584C361.911 117.152 370.943 117.439 380.137 117.439C389.361 117.439 398.423 117.148 407.186 116.581C426.448 115.336 444.268 112.759 459.183 109.013C459.262 108.991 459.338 108.972 459.418 108.953C460.424 108.703 461.415 108.442 462.395 108.181C462.747 108.083 463.095 107.988 463.443 107.893C463.463 107.885 463.483 107.879 463.504 107.875C463.837 107.784 464.166 107.689 464.495 107.598C465.153 107.409 465.804 107.224 466.444 107.031C466.474 107.023 466.5 107.016 466.527 107.008C467.083 106.842 467.628 106.675 468.169 106.509C468.612 106.369 469.05 106.232 469.486 106.092C469.803 105.99 470.118 105.888 470.428 105.786C470.655 105.71 470.878 105.638 471.097 105.563C471.396 105.464 471.695 105.362 471.99 105.26C472.115 105.218 472.24 105.177 472.361 105.131C472.645 105.037 472.921 104.939 473.197 104.84C473.496 104.734 473.795 104.624 474.09 104.519C474.336 104.432 474.582 104.341 474.824 104.25C475.028 104.17 475.229 104.095 475.433 104.019C475.989 103.811 476.534 103.595 477.072 103.383C477.34 103.274 477.609 103.168 477.874 103.058C478.135 102.952 478.4 102.842 478.657 102.733C479.081 102.555 479.497 102.377 479.905 102.199C480.102 102.108 480.303 102.021 480.496 101.938C480.643 101.87 480.787 101.806 480.935 101.738C481.041 101.692 481.147 101.643 481.249 101.594C481.631 101.42 482.009 101.242 482.38 101.064C483.803 100.383 485.131 99.687 486.364 98.9756C494.101 94.5451 498.184 89.6303 498.184 84.5224C498.184 75.6462 485.846 67.3451 463.443 61.1514Z"
            fill="#E6E6E6" />
         <path
            d="M497.968 84.8667C497.968 89.9215 493.802 94.7039 486.364 98.9756C485.127 99.6869 483.795 100.383 482.38 101.064C482.009 101.242 481.631 101.42 481.249 101.594C481.147 101.643 481.04 101.692 480.935 101.738C480.787 101.806 480.643 101.87 480.496 101.938C480.303 102.021 480.102 102.108 479.905 102.199C479.497 102.377 479.081 102.555 478.657 102.733C478.4 102.842 478.135 102.952 477.874 103.058C477.609 103.168 477.34 103.274 477.072 103.383C476.534 103.595 475.989 103.811 475.433 104.019C475.229 104.095 475.028 104.17 474.824 104.25C474.582 104.341 474.336 104.431 474.09 104.518C473.795 104.624 473.496 104.734 473.197 104.84C472.921 104.938 472.645 105.037 472.361 105.131C472.24 105.177 472.115 105.218 471.99 105.26C471.695 105.362 471.396 105.464 471.097 105.563C470.878 105.638 470.655 105.71 470.428 105.786C470.117 105.888 469.803 105.99 469.485 106.092C469.05 106.232 468.611 106.369 468.169 106.509C467.628 106.675 467.083 106.842 466.527 107.008C466.5 107.016 466.474 107.023 466.443 107.031C465.804 107.224 465.153 107.409 464.495 107.598C464.166 107.689 463.837 107.784 463.504 107.874C463.483 107.879 463.463 107.885 463.443 107.893C463.095 107.988 462.747 108.083 462.395 108.181C461.419 108.438 460.424 108.699 459.417 108.953C459.338 108.972 459.262 108.991 459.183 109.013C444.673 112.638 426.871 115.279 407.17 116.554C398.54 117.11 389.543 117.405 380.3 117.405C370.973 117.405 361.9 117.106 353.202 116.539C301.276 113.153 262.631 100.258 262.631 84.8667C262.635 83.9301 262.778 82.9994 263.054 82.1047C263.077 82.169 263.1 82.2295 263.127 82.2938C268.525 96.4746 306.842 107.935 356.558 110.731C364.174 111.162 372.063 111.386 380.137 111.386C388.245 111.386 396.164 111.159 403.81 110.727C453.485 107.92 491.763 96.4557 497.143 82.2863C497.234 82.0592 497.314 81.8322 497.382 81.6052C497.765 82.65 497.964 83.7537 497.968 84.8667Z"
            fill="#1C1C1C" />
         <path
            d="M296.773 80.7942C290.477 80.7942 283.784 79.4394 283.784 76.9286C283.784 74.4177 290.477 73.063 296.773 73.063C303.07 73.063 309.763 74.4177 309.763 76.9286C309.763 79.4394 303.07 80.7942 296.773 80.7942ZM296.773 73.8197C289.565 73.8197 284.541 75.4582 284.541 76.9286C284.541 78.399 289.565 80.0374 296.773 80.0374C303.982 80.0374 309.006 78.399 309.006 76.9286C309.006 75.4582 303.982 73.8197 296.773 73.8197V73.8197Z"
            fill="#1C1C1C" />
         <path
            d="M323.637 98.5769C317.34 98.5769 310.647 97.2221 310.647 94.7113C310.647 92.2004 317.34 90.8457 323.637 90.8457C329.934 90.8457 336.626 92.2004 336.626 94.7113C336.626 97.2221 329.934 98.5769 323.637 98.5769ZM323.637 91.6024C316.428 91.6024 311.404 93.2409 311.404 94.7113C311.404 96.1817 316.428 97.8202 323.637 97.8202C330.845 97.8202 335.869 96.1817 335.869 94.7113C335.869 93.2409 330.845 91.6024 323.637 91.6024V91.6024Z"
            fill="#1C1C1C" />
         <path
            d="M463.25 80.7942C456.953 80.7942 450.261 79.4394 450.261 76.9286C450.261 74.4177 456.953 73.063 463.25 73.063C469.547 73.063 476.239 74.4177 476.239 76.9286C476.239 79.4394 469.547 80.7942 463.25 80.7942ZM463.25 73.8197C456.041 73.8197 451.017 75.4582 451.017 76.9286C451.017 78.399 456.041 80.0374 463.25 80.0374C470.459 80.0374 475.482 78.399 475.482 76.9286C475.482 75.4582 470.459 73.8197 463.25 73.8197V73.8197Z"
            fill="#1C1C1C" />
         <path
            d="M436.387 98.5769C430.09 98.5769 423.397 97.2221 423.397 94.7113C423.397 92.2004 430.09 90.8457 436.387 90.8457C442.684 90.8457 449.376 92.2004 449.376 94.7113C449.376 97.2221 442.684 98.5769 436.387 98.5769ZM436.387 91.6024C429.178 91.6024 424.154 93.2409 424.154 94.7113C424.154 96.1817 429.178 97.8202 436.387 97.8202C443.595 97.8202 448.619 96.1817 448.619 94.7113C448.619 93.2409 443.595 91.6024 436.387 91.6024V91.6024Z"
            fill="#1C1C1C" />
         <path
            d="M380.012 106.901C373.715 106.901 367.022 105.546 367.022 103.035C367.022 100.524 373.715 99.1696 380.012 99.1696C386.309 99.1696 393.001 100.524 393.001 103.035C393.001 105.546 386.309 106.901 380.012 106.901ZM380.012 99.9263C372.803 99.9263 367.779 101.565 367.779 103.035C367.779 104.506 372.803 106.144 380.012 106.144C387.22 106.144 392.244 104.506 392.244 103.035C392.244 101.565 387.22 99.9263 380.012 99.9263V99.9263Z"
            fill="#1C1C1C" />
         <path
            d="M362.732 187.435C362.532 187.435 362.339 187.356 362.197 187.214C362.055 187.072 361.976 186.879 361.976 186.679V142.033C361.976 141.832 362.055 141.639 362.197 141.498C362.339 141.356 362.532 141.276 362.732 141.276C362.933 141.276 363.125 141.356 363.267 141.498C363.409 141.639 363.489 141.832 363.489 142.033V186.679C363.489 186.879 363.409 187.072 363.267 187.214C363.125 187.356 362.933 187.435 362.732 187.435Z"
            fill="#CCCCCC" />
         <path
            d="M351.382 227.541C351.181 227.541 350.989 227.461 350.847 227.319C350.705 227.177 350.625 226.985 350.625 226.784V194.246C350.625 194.045 350.705 193.852 350.847 193.711C350.989 193.569 351.181 193.489 351.382 193.489C351.582 193.489 351.775 193.569 351.917 193.711C352.059 193.852 352.138 194.045 352.138 194.246V226.784C352.138 226.985 352.059 227.177 351.917 227.319C351.775 227.461 351.582 227.541 351.382 227.541V227.541Z"
            fill="#CCCCCC" />
         <path
            d="M386.569 249.715C386.368 249.715 386.176 249.635 386.034 249.493C385.892 249.351 385.812 249.159 385.812 248.958V216.42C385.812 216.219 385.892 216.026 386.034 215.884C386.176 215.743 386.368 215.663 386.569 215.663C386.769 215.663 386.962 215.743 387.104 215.884C387.246 216.026 387.325 216.219 387.325 216.42V248.958C387.325 249.159 387.246 249.351 387.104 249.493C386.962 249.635 386.769 249.715 386.569 249.715V249.715Z"
            fill="#CCCCCC" />
         <path
            d="M380.515 200.678C380.314 200.678 380.122 200.598 379.98 200.456C379.838 200.314 379.758 200.122 379.758 199.921V155.275C379.758 155.074 379.838 154.882 379.98 154.74C380.122 154.598 380.314 154.518 380.515 154.518C380.716 154.518 380.908 154.598 381.05 154.74C381.192 154.882 381.272 155.074 381.272 155.275V199.921C381.272 200.122 381.192 200.314 381.05 200.456C380.908 200.598 380.716 200.678 380.515 200.678Z"
            fill="#CCCCCC" />
         <path
            d="M369.543 232.838C369.342 232.838 369.15 232.758 369.008 232.616C368.866 232.474 368.786 232.282 368.786 232.081V213.92C368.786 213.719 368.866 213.527 369.008 213.385C369.15 213.243 369.342 213.163 369.543 213.163C369.744 213.163 369.936 213.243 370.078 213.385C370.22 213.527 370.3 213.719 370.3 213.92V232.081C370.3 232.282 370.22 232.474 370.078 232.616C369.936 232.758 369.744 232.838 369.543 232.838V232.838Z"
            fill="#CCCCCC" />
         <path
            d="M407.757 257.66C407.556 257.66 407.364 257.581 407.222 257.439C407.08 257.297 407 257.104 407 256.904V238.743C407 238.542 407.08 238.349 407.222 238.207C407.364 238.066 407.556 237.986 407.757 237.986C407.957 237.986 408.15 238.066 408.292 238.207C408.434 238.349 408.513 238.542 408.513 238.743V256.904C408.513 257.104 408.434 257.297 408.292 257.439C408.15 257.581 407.957 257.66 407.757 257.66V257.66Z"
            fill="#CCCCCC" />
         <path
            d="M385.056 139.762C384.855 139.762 384.662 139.683 384.52 139.541C384.379 139.399 384.299 139.206 384.299 139.006V120.845C384.299 120.644 384.379 120.451 384.52 120.31C384.662 120.168 384.855 120.088 385.056 120.088C385.256 120.088 385.449 120.168 385.591 120.31C385.733 120.451 385.812 120.644 385.812 120.845V139.006C385.812 139.206 385.733 139.399 385.591 139.541C385.449 139.683 385.256 139.762 385.056 139.762V139.762Z"
            fill="#CCCCCC" />
         <path
            d="M347.22 147.708C347.019 147.708 346.827 147.628 346.685 147.486C346.543 147.344 346.463 147.152 346.463 146.951V128.79C346.463 128.589 346.543 128.397 346.685 128.255C346.827 128.113 347.019 128.033 347.22 128.033C347.421 128.033 347.613 128.113 347.755 128.255C347.897 128.397 347.977 128.589 347.977 128.79V146.951C347.977 147.152 347.897 147.344 347.755 147.486C347.613 147.628 347.421 147.708 347.22 147.708V147.708Z"
            fill="#CCCCCC" />
         <path
            d="M413.054 149.6C412.853 149.6 412.66 149.52 412.519 149.378C412.377 149.236 412.297 149.044 412.297 148.843V130.682C412.297 130.481 412.377 130.289 412.518 130.147C412.66 130.005 412.853 129.925 413.054 129.925C413.254 129.925 413.447 130.005 413.589 130.147C413.731 130.289 413.81 130.481 413.81 130.682V148.843C413.81 149.044 413.731 149.236 413.589 149.378C413.447 149.52 413.254 149.6 413.054 149.6Z"
            fill="#CCCCCC" />
         <path
            d="M411.54 206.353C411.34 206.353 411.147 206.273 411.005 206.131C410.863 205.99 410.784 205.797 410.784 205.596V183.652C410.784 183.451 410.863 183.259 411.005 183.117C411.147 182.975 411.34 182.895 411.54 182.895C411.741 182.895 411.934 182.975 412.075 183.117C412.217 183.259 412.297 183.451 412.297 183.652V205.596C412.297 205.797 412.217 205.99 412.075 206.131C411.934 206.273 411.741 206.353 411.54 206.353Z"
            fill="#CCCCCC" />
         <path
            d="M358.571 261.444C358.37 261.444 358.178 261.364 358.036 261.222C357.894 261.08 357.814 260.888 357.814 260.687V238.743C357.814 238.542 357.894 238.349 358.036 238.207C358.177 238.066 358.37 237.986 358.571 237.986C358.771 237.986 358.964 238.066 359.106 238.207C359.248 238.349 359.327 238.542 359.327 238.743V260.687C359.327 260.888 359.248 261.08 359.106 261.222C358.964 261.364 358.771 261.444 358.571 261.444Z"
            fill="#CCCCCC" />
         <path
            d="M397.92 223.23C397.719 223.23 397.527 223.15 397.385 223.008C397.243 222.866 397.163 222.674 397.163 222.473V189.935C397.163 189.734 397.243 189.542 397.385 189.4C397.527 189.258 397.719 189.178 397.92 189.178C398.12 189.178 398.313 189.258 398.455 189.4C398.597 189.542 398.677 189.734 398.677 189.935V222.473C398.676 222.674 398.597 222.866 398.455 223.008C398.313 223.15 398.12 223.23 397.92 223.23Z"
            fill="#CCCCCC" />
         <path
            d="M399.433 170.031C399.232 170.031 399.04 169.951 398.898 169.809C398.756 169.667 398.676 169.475 398.676 169.274V124.628C398.676 124.427 398.756 124.235 398.898 124.093C399.04 123.951 399.232 123.871 399.433 123.871C399.634 123.871 399.826 123.951 399.968 124.093C400.11 124.235 400.19 124.427 400.19 124.628V169.274C400.19 169.475 400.11 169.667 399.968 169.809C399.826 169.951 399.634 170.031 399.433 170.031Z"
            fill="#CCCCCC" />
      </g>
      <path
         d="M45.5342 210.798V176.533H52.7998V210.798H45.5342ZM91.6357 184.103C94.6045 184.103 96.8467 184.869 98.3623 186.4C99.8936 187.916 100.659 190.353 100.659 193.713V210.798H93.4873V195.494C93.4873 193.619 93.167 192.205 92.5264 191.252C91.8857 190.298 90.8936 189.822 89.5498 189.822C87.6592 189.822 86.3154 190.502 85.5186 191.861C84.7217 193.205 84.3232 195.134 84.3232 197.65V210.798H77.1748V195.494C77.1748 194.244 77.0342 193.197 76.7529 192.353C76.4717 191.509 76.042 190.877 75.4639 190.455C74.8857 190.033 74.1436 189.822 73.2373 189.822C71.9092 189.822 70.8623 190.158 70.0967 190.83C69.3467 191.486 68.8076 192.463 68.4795 193.759C68.167 195.041 68.0107 196.611 68.0107 198.47V210.798H60.8623V184.595H66.3232L67.2842 187.947H67.6826C68.2139 187.041 68.8779 186.306 69.6748 185.744C70.4873 185.181 71.3779 184.767 72.3467 184.502C73.3154 184.236 74.2998 184.103 75.2998 184.103C77.2217 184.103 78.8467 184.416 80.1748 185.041C81.5186 185.666 82.5498 186.634 83.2686 187.947H83.9014C84.6826 186.603 85.7842 185.627 87.2061 185.017C88.6436 184.408 90.1201 184.103 91.6357 184.103ZM118.753 184.056C122.269 184.056 124.964 184.822 126.839 186.353C128.714 187.884 129.651 190.213 129.651 193.338V210.798H124.659L123.276 207.236H123.089C122.339 208.173 121.573 208.939 120.792 209.533C120.011 210.127 119.112 210.564 118.097 210.845C117.081 211.127 115.847 211.267 114.394 211.267C112.847 211.267 111.456 210.97 110.222 210.377C109.003 209.783 108.042 208.877 107.339 207.658C106.636 206.423 106.284 204.861 106.284 202.97C106.284 200.189 107.261 198.142 109.214 196.83C111.167 195.502 114.097 194.767 118.003 194.627L122.55 194.486V193.338C122.55 191.963 122.19 190.955 121.472 190.314C120.753 189.673 119.753 189.353 118.472 189.353C117.206 189.353 115.964 189.533 114.745 189.892C113.526 190.252 112.308 190.705 111.089 191.252L108.722 186.423C110.112 185.689 111.667 185.111 113.386 184.689C115.12 184.267 116.909 184.056 118.753 184.056ZM122.55 198.658L119.784 198.752C117.472 198.814 115.862 199.228 114.956 199.994C114.065 200.759 113.62 201.767 113.62 203.017C113.62 204.111 113.94 204.892 114.581 205.361C115.222 205.814 116.058 206.041 117.089 206.041C118.62 206.041 119.909 205.588 120.956 204.681C122.019 203.775 122.55 202.486 122.55 200.814V198.658ZM144.698 222.33C141.042 222.33 138.245 221.689 136.308 220.408C134.386 219.142 133.425 217.361 133.425 215.064C133.425 213.486 133.917 212.166 134.901 211.103C135.886 210.041 137.331 209.283 139.237 208.83C138.503 208.517 137.862 208.009 137.315 207.306C136.769 206.588 136.495 205.83 136.495 205.033C136.495 204.033 136.784 203.205 137.362 202.548C137.94 201.877 138.776 201.22 139.87 200.58C138.495 199.986 137.401 199.033 136.589 197.72C135.792 196.408 135.394 194.861 135.394 193.08C135.394 191.173 135.808 189.556 136.636 188.228C137.479 186.884 138.698 185.861 140.292 185.158C141.901 184.455 143.854 184.103 146.151 184.103C146.636 184.103 147.198 184.134 147.839 184.197C148.479 184.259 149.065 184.33 149.597 184.408C150.144 184.486 150.511 184.548 150.698 184.595H159.839V188.228L155.737 189.283C156.112 189.861 156.394 190.478 156.581 191.134C156.769 191.791 156.862 192.486 156.862 193.22C156.862 196.033 155.878 198.228 153.909 199.806C151.956 201.369 149.237 202.15 145.753 202.15C144.925 202.103 144.144 202.041 143.409 201.963C143.05 202.244 142.776 202.541 142.589 202.853C142.401 203.166 142.308 203.494 142.308 203.838C142.308 204.181 142.448 204.47 142.729 204.705C143.026 204.923 143.464 205.095 144.042 205.22C144.636 205.33 145.37 205.384 146.245 205.384H150.698C153.573 205.384 155.761 206.002 157.261 207.236C158.776 208.47 159.534 210.283 159.534 212.673C159.534 215.736 158.253 218.111 155.69 219.798C153.144 221.486 149.479 222.33 144.698 222.33ZM145.003 217.666C146.706 217.666 148.167 217.502 149.386 217.173C150.62 216.861 151.565 216.408 152.222 215.814C152.878 215.236 153.206 214.541 153.206 213.728C153.206 213.072 153.011 212.548 152.62 212.158C152.245 211.783 151.667 211.517 150.886 211.361C150.12 211.205 149.136 211.127 147.933 211.127H144.229C143.354 211.127 142.565 211.267 141.862 211.548C141.175 211.83 140.628 212.22 140.222 212.72C139.815 213.236 139.612 213.83 139.612 214.502C139.612 215.486 140.081 216.259 141.019 216.822C141.972 217.384 143.3 217.666 145.003 217.666ZM146.151 197.791C147.495 197.791 148.479 197.377 149.104 196.548C149.729 195.72 150.042 194.595 150.042 193.173C150.042 191.595 149.714 190.416 149.058 189.634C148.417 188.838 147.448 188.439 146.151 188.439C144.839 188.439 143.854 188.838 143.198 189.634C142.542 190.416 142.214 191.595 142.214 193.173C142.214 194.595 142.534 195.72 143.175 196.548C143.831 197.377 144.823 197.791 146.151 197.791ZM174.979 184.103C177.401 184.103 179.487 184.572 181.237 185.509C182.987 186.431 184.339 187.775 185.292 189.541C186.245 191.306 186.722 193.463 186.722 196.009V199.478H169.823C169.901 201.494 170.503 203.08 171.628 204.236C172.769 205.377 174.347 205.947 176.362 205.947C178.034 205.947 179.565 205.775 180.956 205.431C182.347 205.088 183.776 204.572 185.245 203.884V209.416C183.948 210.056 182.589 210.525 181.167 210.822C179.761 211.119 178.05 211.267 176.034 211.267C173.409 211.267 171.081 210.783 169.05 209.814C167.034 208.845 165.448 207.369 164.292 205.384C163.151 203.4 162.581 200.9 162.581 197.884C162.581 194.822 163.097 192.275 164.128 190.244C165.175 188.197 166.628 186.666 168.487 185.65C170.347 184.619 172.511 184.103 174.979 184.103ZM175.026 189.189C173.636 189.189 172.479 189.634 171.558 190.525C170.651 191.416 170.128 192.814 169.987 194.72H180.019C180.003 193.658 179.808 192.713 179.433 191.884C179.073 191.056 178.526 190.4 177.792 189.916C177.073 189.431 176.151 189.189 175.026 189.189ZM75.9326 275.798H66.6982L51.792 249.877H51.5811C51.6436 250.955 51.6982 252.041 51.7451 253.134C51.792 254.228 51.8389 255.322 51.8857 256.416C51.9326 257.494 51.9795 258.58 52.0264 259.673V275.798H45.5342V241.533H54.6982L69.5811 267.197H69.7451C69.7139 266.134 69.6748 265.08 69.6279 264.033C69.5811 262.986 69.5342 261.939 69.4873 260.892C69.4561 259.845 69.4248 258.798 69.3936 257.752V241.533H75.9326V275.798ZM107.831 262.65C107.831 264.838 107.534 266.775 106.94 268.463C106.362 270.15 105.511 271.58 104.386 272.752C103.276 273.908 101.933 274.783 100.354 275.377C98.792 275.97 97.0264 276.267 95.0576 276.267C93.2139 276.267 91.5186 275.97 89.9717 275.377C88.4404 274.783 87.1045 273.908 85.9639 272.752C84.8389 271.58 83.9639 270.15 83.3389 268.463C82.7295 266.775 82.4248 264.838 82.4248 262.65C82.4248 259.744 82.9404 257.283 83.9717 255.267C85.0029 253.252 86.4717 251.72 88.3779 250.673C90.2842 249.627 92.5576 249.103 95.1982 249.103C97.6514 249.103 99.8232 249.627 101.714 250.673C103.62 251.72 105.112 253.252 106.19 255.267C107.284 257.283 107.831 259.744 107.831 262.65ZM89.7139 262.65C89.7139 264.369 89.9014 265.814 90.2764 266.986C90.6514 268.158 91.2373 269.041 92.0342 269.634C92.8311 270.228 93.8701 270.525 95.1514 270.525C96.417 270.525 97.4404 270.228 98.2217 269.634C99.0186 269.041 99.5967 268.158 99.9561 266.986C100.331 265.814 100.519 264.369 100.519 262.65C100.519 260.916 100.331 259.478 99.9561 258.338C99.5967 257.181 99.0186 256.314 98.2217 255.736C97.4248 255.158 96.3857 254.869 95.1045 254.869C93.2139 254.869 91.8389 255.517 90.9795 256.814C90.1357 258.111 89.7139 260.056 89.7139 262.65ZM124.776 270.572C125.558 270.572 126.315 270.494 127.05 270.338C127.8 270.181 128.542 269.986 129.276 269.752V275.072C128.511 275.416 127.558 275.697 126.417 275.916C125.292 276.15 124.058 276.267 122.714 276.267C121.151 276.267 119.745 276.017 118.495 275.517C117.261 275.002 116.284 274.119 115.565 272.869C114.862 271.603 114.511 269.845 114.511 267.595V254.963H111.089V251.939L115.026 249.548L117.089 244.017H121.659V249.595H128.995V254.963H121.659V267.595C121.659 268.595 121.94 269.345 122.503 269.845C123.081 270.33 123.839 270.572 124.776 270.572ZM154.776 275.798H147.628V241.533H167.269V247.486H154.776V256.322H166.401V262.252H154.776V275.798ZM197.222 262.65C197.222 264.838 196.925 266.775 196.331 268.463C195.753 270.15 194.901 271.58 193.776 272.752C192.667 273.908 191.323 274.783 189.745 275.377C188.183 275.97 186.417 276.267 184.448 276.267C182.604 276.267 180.909 275.97 179.362 275.377C177.831 274.783 176.495 273.908 175.354 272.752C174.229 271.58 173.354 270.15 172.729 268.463C172.12 266.775 171.815 264.838 171.815 262.65C171.815 259.744 172.331 257.283 173.362 255.267C174.394 253.252 175.862 251.72 177.769 250.673C179.675 249.627 181.948 249.103 184.589 249.103C187.042 249.103 189.214 249.627 191.104 250.673C193.011 251.72 194.503 253.252 195.581 255.267C196.675 257.283 197.222 259.744 197.222 262.65ZM179.104 262.65C179.104 264.369 179.292 265.814 179.667 266.986C180.042 268.158 180.628 269.041 181.425 269.634C182.222 270.228 183.261 270.525 184.542 270.525C185.808 270.525 186.831 270.228 187.612 269.634C188.409 269.041 188.987 268.158 189.347 266.986C189.722 265.814 189.909 264.369 189.909 262.65C189.909 260.916 189.722 259.478 189.347 258.338C188.987 257.181 188.409 256.314 187.612 255.736C186.815 255.158 185.776 254.869 184.495 254.869C182.604 254.869 181.229 255.517 180.37 256.814C179.526 258.111 179.104 260.056 179.104 262.65ZM227.175 249.595V275.798H221.69L220.729 272.447H220.354C219.792 273.338 219.089 274.064 218.245 274.627C217.401 275.189 216.472 275.603 215.456 275.869C214.44 276.134 213.386 276.267 212.292 276.267C210.417 276.267 208.784 275.939 207.394 275.283C206.003 274.611 204.917 273.572 204.136 272.166C203.37 270.759 202.987 268.931 202.987 266.681V249.595H210.136V264.9C210.136 266.775 210.472 268.189 211.144 269.142C211.815 270.095 212.886 270.572 214.354 270.572C215.808 270.572 216.948 270.244 217.776 269.588C218.604 268.916 219.183 267.939 219.511 266.658C219.854 265.361 220.026 263.783 220.026 261.923V249.595H227.175ZM249.558 249.103C252.354 249.103 254.604 249.869 256.308 251.4C258.011 252.916 258.862 255.353 258.862 258.713V275.798H251.714V260.494C251.714 258.619 251.37 257.205 250.683 256.252C250.011 255.298 248.948 254.822 247.495 254.822C245.308 254.822 243.815 255.564 243.019 257.048C242.222 258.533 241.823 260.673 241.823 263.47V275.798H234.675V249.595H240.136L241.097 252.947H241.495C242.058 252.041 242.753 251.306 243.581 250.744C244.425 250.181 245.354 249.767 246.37 249.502C247.401 249.236 248.464 249.103 249.558 249.103ZM274.519 276.267C271.597 276.267 269.214 275.127 267.37 272.845C265.542 270.548 264.628 267.181 264.628 262.744C264.628 258.259 265.558 254.869 267.417 252.572C269.276 250.259 271.706 249.103 274.706 249.103C275.956 249.103 277.058 249.275 278.011 249.619C278.964 249.963 279.784 250.423 280.472 251.002C281.175 251.58 281.769 252.228 282.253 252.947H282.487C282.394 252.447 282.276 251.713 282.136 250.744C282.011 249.759 281.948 248.752 281.948 247.72V239.33H289.12V275.798H283.636L282.253 272.4H281.948C281.495 273.119 280.925 273.775 280.237 274.369C279.565 274.947 278.761 275.408 277.823 275.752C276.886 276.095 275.784 276.267 274.519 276.267ZM277.026 270.572C278.979 270.572 280.354 269.994 281.151 268.838C281.964 267.666 282.394 265.908 282.44 263.564V262.791C282.44 260.244 282.05 258.298 281.269 256.955C280.487 255.595 279.034 254.916 276.909 254.916C275.331 254.916 274.097 255.595 273.206 256.955C272.315 258.314 271.87 260.275 271.87 262.838C271.87 265.4 272.315 267.33 273.206 268.627C274.112 269.923 275.386 270.572 277.026 270.572Z"
         fill="#E6E6E6" />
   </g>
   <defs>
      <clipPath id="clip0_408_182">
         <rect width="500" height="388.307" fill="white" />
      </clipPath>
      <clipPath id="clip1_408_182">
         <rect width="254.456" height="279.376" fill="white" transform="translate(262.09)" />
      </clipPath>
   </defs>
</svg>
