<svg width="500" height="500" viewBox="0 0 500 500" fill="none" xmlns="http://www.w3.org/2000/svg">
<path d="M488.949 283.08C543.393 343.288 385.57 430.058 258.046 430.058C130.521 430.058 42.2941 362.827 27.1421 283.08C-9.59634 89.7199 340.163 -33.1785 258.046 136.102C138.351 382.847 446.074 235.664 488.949 283.08Z" fill="#E6E6E6"/>
<path d="M464.521 297.329C518.965 357.538 361.142 444.307 233.618 444.307C106.093 444.307 17.8664 377.076 2.71437 297.329C-34.0241 103.969 315.735 -18.929 233.618 150.351C113.923 397.096 421.646 249.914 464.521 297.329Z" fill="#1C1C1C"/>
<path d="M76.13 156.167C37.9272 154.485 8.30655 146.244 8.69568 137.406C8.92899 132.107 19.7407 127.847 38.3585 125.717C38.4252 125.708 38.4927 125.714 38.5574 125.732C38.622 125.75 38.6824 125.781 38.7351 125.822C38.7877 125.864 38.8317 125.915 38.8643 125.974C38.897 126.033 38.9177 126.097 38.9254 126.164C38.933 126.231 38.9274 126.298 38.9088 126.363C38.8902 126.427 38.8591 126.487 38.8171 126.54C38.7752 126.592 38.7233 126.636 38.6644 126.668C38.6056 126.7 38.5409 126.721 38.4742 126.728C20.9362 128.734 9.91541 132.843 9.71252 137.451C9.36062 145.443 39.7965 153.548 76.1747 155.15C112.553 156.752 143.583 151.353 143.935 143.361C144.139 138.734 133.453 133.658 116.048 130.115C115.982 130.101 115.92 130.075 115.864 130.038C115.809 130.001 115.761 129.953 115.724 129.897C115.687 129.841 115.661 129.779 115.649 129.713C115.636 129.647 115.636 129.58 115.649 129.514C115.663 129.448 115.689 129.386 115.727 129.331C115.764 129.275 115.812 129.227 115.868 129.191C115.924 129.154 115.986 129.128 116.052 129.116C116.118 129.103 116.186 129.104 116.251 129.117C134.725 132.878 145.186 138.086 144.952 143.406C144.563 152.244 114.333 157.849 76.13 156.167Z" fill="#12B0C9"/>
<path d="M42.2007 157.647C45.3966 163.718 50.1308 168.843 55.9296 172.51C61.7284 176.177 68.3885 178.257 75.2435 178.541C82.0985 178.826 88.9081 177.305 94.9908 174.132C101.074 170.958 106.216 166.242 109.904 160.457C87.3019 160.762 64.7 159.824 42.2007 157.647Z" fill="#12B0C9"/>
<path d="M114.13 149.752C116.053 143.983 116.608 137.845 115.749 131.825C114.89 125.805 112.642 120.067 109.182 115.066C105.722 110.064 101.146 105.937 95.815 103.01C90.4843 100.084 84.5455 98.4379 78.4688 98.2033C72.392 97.9686 66.344 99.1515 60.8035 101.658C55.263 104.165 50.382 107.927 46.5468 112.647C42.7116 117.366 40.0275 122.914 38.707 128.85C37.3864 134.786 37.4657 140.948 38.9384 146.848C63.7712 151.064 89.046 152.04 114.13 149.752Z" fill="#12B0C9"/>
<path d="M85.9215 123.482C88.4511 123.482 90.5017 121.432 90.5017 118.902C90.5017 116.372 88.4511 114.322 85.9215 114.322C83.3919 114.322 81.3413 116.372 81.3413 118.902C81.3413 121.432 83.3919 123.482 85.9215 123.482Z" fill="white"/>
<path d="M62.3485 141.289C66.5645 141.289 69.9822 137.872 69.9822 133.656C69.9822 129.44 66.5645 126.022 62.3485 126.022C58.1326 126.022 54.7148 129.44 54.7148 133.656C54.7148 137.872 58.1326 141.289 62.3485 141.289Z" fill="white"/>
<path d="M177.562 133.812C180.373 133.812 182.651 131.533 182.651 128.723C182.651 125.912 180.373 123.634 177.562 123.634C174.752 123.634 172.473 125.912 172.473 128.723C172.473 131.533 174.752 133.812 177.562 133.812Z" fill="#12B0C9"/>
<path d="M62.5477 289.539C64.2341 289.539 65.6012 288.172 65.6012 286.486C65.6012 284.799 64.2341 283.432 62.5477 283.432C60.8612 283.432 59.4941 284.799 59.4941 286.486C59.4941 288.172 60.8612 289.539 62.5477 289.539Z" fill="#E6E6E6"/>
<path d="M276.291 394.375C277.977 394.375 279.344 393.008 279.344 391.321C279.344 389.635 277.977 388.268 276.291 388.268C274.604 388.268 273.237 389.635 273.237 391.321C273.237 393.008 274.604 394.375 276.291 394.375Z" fill="#E6E6E6"/>
<path d="M77.3061 230.505C78.1493 230.505 78.8328 229.822 78.8328 228.978C78.8328 228.135 78.1493 227.452 77.3061 227.452C76.4629 227.452 75.7793 228.135 75.7793 228.978C75.7793 229.822 76.4629 230.505 77.3061 230.505Z" fill="#E6E6E6"/>
<path d="M203.517 344.502C204.36 344.502 205.043 343.818 205.043 342.975C205.043 342.132 204.36 341.448 203.517 341.448C202.673 341.448 201.99 342.132 201.99 342.975C201.99 343.818 202.673 344.502 203.517 344.502Z" fill="#E6E6E6"/>
<path d="M433.036 329.743C433.879 329.743 434.563 329.06 434.563 328.216C434.563 327.373 433.879 326.69 433.036 326.69C432.193 326.69 431.509 327.373 431.509 328.216C431.509 329.06 432.193 329.743 433.036 329.743Z" fill="#E6E6E6"/>
<path d="M361.279 375.036C362.122 375.036 362.806 374.353 362.806 373.51C362.806 372.666 362.122 371.983 361.279 371.983C360.436 371.983 359.752 372.666 359.752 373.51C359.752 374.353 360.436 375.036 361.279 375.036Z" fill="#E6E6E6"/>
<path d="M286.469 320.074C287.312 320.074 287.996 319.39 287.996 318.547C287.996 317.704 287.312 317.02 286.469 317.02C285.626 317.02 284.942 317.704 284.942 318.547C284.942 319.39 285.626 320.074 286.469 320.074Z" fill="#E6E6E6"/>
<path d="M189.776 169.436C190.619 169.436 191.303 168.752 191.303 167.909C191.303 167.066 190.619 166.382 189.776 166.382C188.933 166.382 188.249 167.066 188.249 167.909C188.249 168.752 188.933 169.436 189.776 169.436Z" fill="#E6E6E6"/>
<path d="M201.99 94.1166C202.833 94.1166 203.516 93.433 203.516 92.5898C203.516 91.7466 202.833 91.063 201.99 91.063C201.146 91.063 200.463 91.7466 200.463 92.5898C200.463 93.433 201.146 94.1166 201.99 94.1166Z" fill="#E6E6E6"/>
<path d="M194.865 411.169C195.708 411.169 196.392 410.485 196.392 409.642C196.392 408.799 195.708 408.115 194.865 408.115C194.022 408.115 193.338 408.799 193.338 409.642C193.338 410.485 194.022 411.169 194.865 411.169Z" fill="#E6E6E6"/>
<path d="M119.546 379.108C120.389 379.108 121.073 378.424 121.073 377.581C121.073 376.738 120.389 376.054 119.546 376.054C118.703 376.054 118.019 376.738 118.019 377.581C118.019 378.424 118.703 379.108 119.546 379.108Z" fill="#E6E6E6"/>
<path d="M358.226 324.145C359.069 324.145 359.753 323.462 359.753 322.618C359.753 321.775 359.069 321.092 358.226 321.092C357.383 321.092 356.699 321.775 356.699 322.618C356.699 323.462 357.383 324.145 358.226 324.145Z" fill="#E6E6E6"/>
<path d="M75.5094 174.983C78.039 174.983 80.0896 172.932 80.0896 170.403C80.0896 167.873 78.039 165.823 75.5094 165.823C72.9798 165.823 70.9292 167.873 70.9292 170.403C70.9292 172.932 72.9798 174.983 75.5094 174.983Z" fill="white"/>
<path d="M240.736 281.9C243.618 280.052 240.113 269.443 232.908 258.204C225.703 246.964 217.526 239.351 214.644 241.198C211.762 243.046 215.267 253.655 222.472 264.894C229.677 276.133 237.854 283.747 240.736 281.9Z" fill="#1C1C1C"/>
<path d="M404.066 298.212C412.845 298.212 419.962 291.096 419.962 282.317C419.962 273.538 412.845 266.421 404.066 266.421C395.287 266.421 388.17 273.538 388.17 282.317C388.17 291.096 395.287 298.212 404.066 298.212Z" fill="#2F2E41"/>
<path d="M398.021 292.76L390.285 296.635L392.447 300.952L400.184 297.078L398.021 292.76Z" fill="#2F2E41"/>
<path d="M393.467 300.514C393.926 299.818 392.794 298.263 390.939 297.039C389.083 295.816 387.207 295.388 386.748 296.084C386.289 296.78 387.422 298.336 389.277 299.559C391.133 300.782 393.009 301.21 393.467 300.514Z" fill="#2F2E41"/>
<path d="M410.111 292.76L407.948 297.078L415.684 300.952L417.847 296.635L410.111 292.76Z" fill="#2F2E41"/>
<path d="M418.855 299.559C420.71 298.335 421.842 296.78 421.384 296.084C420.925 295.388 419.049 295.816 417.193 297.039C415.338 298.263 414.205 299.818 414.664 300.514C415.123 301.21 416.999 300.782 418.855 299.559Z" fill="#2F2E41"/>
<path d="M402.953 283.861C405.954 283.861 408.386 281.429 408.386 278.429C408.386 275.428 405.954 272.996 402.953 272.996C399.953 272.996 397.521 275.428 397.521 278.429C397.521 281.429 399.953 283.861 402.953 283.861Z" fill="white"/>
<path d="M404.275 277.387C404.979 276.683 404.975 275.537 404.266 274.828C403.556 274.119 402.411 274.115 401.706 274.819C401.002 275.523 401.006 276.669 401.715 277.378C402.425 278.087 403.57 278.091 404.275 277.387Z" fill="#3F3D56"/>
<path d="M416.605 265.024C416.845 259.139 411.773 254.155 405.277 253.891C398.782 253.627 393.322 258.184 393.083 264.069C392.844 269.953 397.359 271.291 403.855 271.554C410.35 271.818 416.366 270.909 416.605 265.024Z" fill="#12B0C9"/>
<path d="M425.768 290.64C426.814 289.743 425.343 286.315 422.484 282.985C419.625 279.654 416.46 277.682 415.414 278.579C414.369 279.477 415.839 282.905 418.698 286.235C421.557 289.566 424.723 291.538 425.768 290.64Z" fill="#2F2E41"/>
<path d="M389.478 286.235C392.338 282.905 393.808 279.477 392.762 278.579C391.717 277.682 388.551 279.654 385.692 282.985C382.833 286.315 381.363 289.743 382.408 290.64C383.454 291.538 386.619 289.566 389.478 286.235Z" fill="#2F2E41"/>
<path d="M408.432 288.581C408.604 289.526 408.393 290.501 407.847 291.291C407.3 292.08 406.462 292.621 405.517 292.793C404.572 292.965 403.597 292.755 402.808 292.208C402.018 291.661 401.477 290.823 401.305 289.878L401.304 289.871C400.948 287.903 402.469 287.207 404.438 286.85C406.406 286.494 408.075 286.613 408.432 288.581Z" fill="white"/>
<path d="M410.597 178.76H335.444V229.462H410.597V178.76Z" fill="white"/>
<path d="M341.839 225.23H404.29V182.908H341.839V225.23Z" fill="#E5E5E5"/>
<path d="M359.579 211.585C363.199 211.585 366.134 208.65 366.134 205.03C366.134 201.41 363.199 198.475 359.579 198.475C355.958 198.475 353.023 201.41 353.023 205.03C353.023 208.65 355.958 211.585 359.579 211.585Z" fill="#1C1C1C"/>
<path d="M380.134 225.231H347.977C347.936 225.231 347.896 225.228 347.856 225.221L363.065 198.878C363.158 198.714 363.293 198.577 363.455 198.482C363.618 198.387 363.803 198.337 363.992 198.337C364.18 198.337 364.365 198.387 364.528 198.482C364.691 198.577 364.826 198.714 364.919 198.878L375.126 216.555L375.615 217.401L380.134 225.231Z" fill="#12B0C9"/>
<path opacity="0.2" d="M380.134 225.23H369.155L374.544 217.401L374.933 216.837L375.127 216.555L375.616 217.401L380.134 225.23Z" fill="black"/>
<path d="M398.039 225.23H370.226L375.615 217.401L376.003 216.837L383.026 206.635C383.15 206.479 383.306 206.351 383.483 206.259C383.66 206.167 383.854 206.114 384.053 206.102C384.252 206.09 384.451 206.12 384.638 206.19C384.824 206.26 384.994 206.369 385.136 206.509C385.172 206.549 385.206 206.591 385.237 206.635L398.039 225.23Z" fill="#12B0C9"/>
<path d="M438.782 112.679C421.143 109.864 401.056 108.362 380.137 108.362C360.992 108.362 342.547 109.618 326.04 111.987C326.043 111.733 326.047 111.48 326.058 111.226C326.496 96.5118 332.672 82.5523 343.266 72.3312C353.86 62.1101 368.032 56.4385 382.753 56.5284C397.473 56.6183 411.575 62.4627 422.043 72.8125C432.512 83.1622 438.517 97.1962 438.774 111.915C438.778 112.172 438.782 112.426 438.782 112.679Z" fill="#12B0C9"/>
<path opacity="0.1" d="M389.804 56.5075C381.975 55.45 374.011 56.0493 366.428 58.2668C358.845 60.4842 351.812 64.2702 345.786 69.3794C339.76 74.4886 334.875 80.807 331.447 87.925C328.019 95.0431 326.125 102.802 325.888 110.699C325.877 110.952 325.873 111.206 325.869 111.459C330.773 110.756 335.852 110.153 341.066 109.649C341.704 96.4934 346.927 83.9759 355.83 74.2689C364.732 64.5619 376.752 58.2779 389.804 56.5075Z" fill="white"/>
<path d="M463.443 117.151C455.324 114.95 447.088 113.202 438.774 111.915C425.148 109.803 411.411 108.483 397.632 107.961C391.892 107.726 386.047 107.605 380.137 107.605C375.453 107.605 370.807 107.681 366.225 107.832C352.784 108.23 339.375 109.363 326.058 111.226C316.201 112.584 306.439 114.563 296.83 117.151C274.428 123.345 262.09 131.646 262.09 140.522C262.09 149.399 274.428 157.7 296.83 163.893C312.585 168.252 332.01 171.222 353.175 172.584C361.911 173.152 370.943 173.439 380.137 173.439C389.361 173.439 398.423 173.148 407.186 172.581C426.448 171.336 444.268 168.759 459.183 165.013C459.262 164.991 459.338 164.972 459.418 164.953C460.424 164.703 461.415 164.442 462.395 164.181C462.747 164.083 463.095 163.988 463.443 163.893C463.463 163.885 463.483 163.879 463.504 163.875C463.837 163.784 464.166 163.689 464.495 163.598C465.153 163.409 465.804 163.224 466.444 163.031C466.474 163.023 466.5 163.016 466.527 163.008C467.083 162.842 467.628 162.675 468.169 162.509C468.612 162.369 469.05 162.232 469.486 162.092C469.803 161.99 470.118 161.888 470.428 161.786C470.655 161.71 470.878 161.638 471.097 161.563C471.396 161.464 471.695 161.362 471.99 161.26C472.115 161.218 472.24 161.177 472.361 161.131C472.645 161.037 472.921 160.939 473.197 160.84C473.496 160.734 473.795 160.624 474.09 160.519C474.336 160.432 474.582 160.341 474.824 160.25C475.028 160.17 475.229 160.095 475.433 160.019C475.989 159.811 476.534 159.595 477.072 159.383C477.34 159.274 477.609 159.168 477.874 159.058C478.135 158.952 478.4 158.842 478.657 158.733C479.081 158.555 479.497 158.377 479.905 158.199C480.102 158.108 480.303 158.021 480.496 157.938C480.643 157.87 480.787 157.806 480.935 157.738C481.041 157.692 481.147 157.643 481.249 157.594C481.631 157.42 482.009 157.242 482.38 157.064C483.803 156.383 485.131 155.687 486.364 154.976C494.101 150.545 498.184 145.63 498.184 140.522C498.184 131.646 485.846 123.345 463.443 117.151Z" fill="#E6E6E6"/>
<path d="M497.968 140.867C497.968 145.922 493.802 150.704 486.364 154.976C485.127 155.687 483.795 156.383 482.38 157.064C482.009 157.242 481.631 157.42 481.249 157.594C481.147 157.643 481.04 157.692 480.935 157.738C480.787 157.806 480.643 157.87 480.496 157.938C480.303 158.021 480.102 158.108 479.905 158.199C479.497 158.377 479.081 158.555 478.657 158.733C478.4 158.842 478.135 158.952 477.874 159.058C477.609 159.168 477.34 159.274 477.072 159.383C476.534 159.595 475.989 159.811 475.433 160.019C475.229 160.095 475.028 160.17 474.824 160.25C474.582 160.341 474.336 160.431 474.09 160.518C473.795 160.624 473.496 160.734 473.197 160.84C472.921 160.938 472.645 161.037 472.361 161.131C472.24 161.177 472.115 161.218 471.99 161.26C471.695 161.362 471.396 161.464 471.097 161.563C470.878 161.638 470.655 161.71 470.428 161.786C470.117 161.888 469.803 161.99 469.485 162.092C469.05 162.232 468.611 162.369 468.169 162.509C467.628 162.675 467.083 162.842 466.527 163.008C466.5 163.016 466.474 163.023 466.443 163.031C465.804 163.224 465.153 163.409 464.495 163.598C464.166 163.689 463.837 163.784 463.504 163.874C463.483 163.879 463.463 163.885 463.443 163.893C463.095 163.988 462.747 164.083 462.395 164.181C461.419 164.438 460.424 164.699 459.417 164.953C459.338 164.972 459.262 164.991 459.183 165.013C444.673 168.638 426.871 171.279 407.17 172.554C398.54 173.11 389.543 173.405 380.3 173.405C370.973 173.405 361.9 173.106 353.202 172.539C301.276 169.153 262.631 156.258 262.631 140.867C262.635 139.93 262.778 138.999 263.054 138.105C263.077 138.169 263.1 138.23 263.127 138.294C268.525 152.475 306.842 163.935 356.558 166.731C364.174 167.162 372.063 167.386 380.137 167.386C388.245 167.386 396.164 167.159 403.81 166.727C453.485 163.92 491.763 152.456 497.143 138.286C497.234 138.059 497.314 137.832 497.382 137.605C497.765 138.65 497.964 139.754 497.968 140.867Z" fill="#1C1C1C"/>
<path d="M296.773 136.794C290.477 136.794 283.784 135.439 283.784 132.929C283.784 130.418 290.477 129.063 296.773 129.063C303.07 129.063 309.763 130.418 309.763 132.929C309.763 135.439 303.07 136.794 296.773 136.794ZM296.773 129.82C289.565 129.82 284.541 131.458 284.541 132.929C284.541 134.399 289.565 136.037 296.773 136.037C303.982 136.037 309.006 134.399 309.006 132.929C309.006 131.458 303.982 129.82 296.773 129.82Z" fill="#1C1C1C"/>
<path d="M323.637 154.577C317.34 154.577 310.647 153.222 310.647 150.711C310.647 148.2 317.34 146.846 323.637 146.846C329.934 146.846 336.626 148.2 336.626 150.711C336.626 153.222 329.934 154.577 323.637 154.577ZM323.637 147.602C316.428 147.602 311.404 149.241 311.404 150.711C311.404 152.182 316.428 153.82 323.637 153.82C330.845 153.82 335.869 152.182 335.869 150.711C335.869 149.241 330.845 147.602 323.637 147.602Z" fill="#1C1C1C"/>
<path d="M463.25 136.794C456.953 136.794 450.261 135.439 450.261 132.929C450.261 130.418 456.953 129.063 463.25 129.063C469.547 129.063 476.239 130.418 476.239 132.929C476.239 135.439 469.547 136.794 463.25 136.794ZM463.25 129.82C456.041 129.82 451.017 131.458 451.017 132.929C451.017 134.399 456.041 136.037 463.25 136.037C470.459 136.037 475.482 134.399 475.482 132.929C475.482 131.458 470.459 129.82 463.25 129.82Z" fill="#1C1C1C"/>
<path d="M436.387 154.577C430.09 154.577 423.397 153.222 423.397 150.711C423.397 148.2 430.09 146.846 436.387 146.846C442.684 146.846 449.376 148.2 449.376 150.711C449.376 153.222 442.684 154.577 436.387 154.577ZM436.387 147.602C429.178 147.602 424.154 149.241 424.154 150.711C424.154 152.182 429.178 153.82 436.387 153.82C443.595 153.82 448.619 152.182 448.619 150.711C448.619 149.241 443.595 147.602 436.387 147.602Z" fill="#1C1C1C"/>
<path d="M380.012 162.901C373.715 162.901 367.022 161.546 367.022 159.035C367.022 156.524 373.715 155.17 380.012 155.17C386.309 155.17 393.001 156.524 393.001 159.035C393.001 161.546 386.309 162.901 380.012 162.901ZM380.012 155.926C372.803 155.926 367.779 157.565 367.779 159.035C367.779 160.506 372.803 162.144 380.012 162.144C387.22 162.144 392.244 160.506 392.244 159.035C392.244 157.565 387.22 155.926 380.012 155.926Z" fill="#1C1C1C"/>
<path d="M362.732 243.435C362.532 243.435 362.339 243.356 362.197 243.214C362.055 243.072 361.976 242.879 361.976 242.679V198.033C361.976 197.832 362.055 197.639 362.197 197.498C362.339 197.356 362.532 197.276 362.732 197.276C362.933 197.276 363.125 197.356 363.267 197.498C363.409 197.639 363.489 197.832 363.489 198.033V242.679C363.489 242.879 363.409 243.072 363.267 243.214C363.125 243.356 362.933 243.435 362.732 243.435Z" fill="#CCCCCC"/>
<path d="M351.382 283.541C351.181 283.541 350.989 283.461 350.847 283.319C350.705 283.177 350.625 282.985 350.625 282.784V250.246C350.625 250.045 350.705 249.852 350.847 249.711C350.989 249.569 351.181 249.489 351.382 249.489C351.582 249.489 351.775 249.569 351.917 249.711C352.059 249.852 352.138 250.045 352.138 250.246V282.784C352.138 282.985 352.059 283.177 351.917 283.319C351.775 283.461 351.582 283.541 351.382 283.541Z" fill="#CCCCCC"/>
<path d="M386.569 305.715C386.368 305.715 386.176 305.635 386.034 305.493C385.892 305.351 385.812 305.159 385.812 304.958V272.42C385.812 272.219 385.892 272.026 386.034 271.884C386.176 271.743 386.368 271.663 386.569 271.663C386.769 271.663 386.962 271.743 387.104 271.884C387.246 272.026 387.325 272.219 387.325 272.42V304.958C387.325 305.159 387.246 305.351 387.104 305.493C386.962 305.635 386.769 305.715 386.569 305.715Z" fill="#CCCCCC"/>
<path d="M380.515 256.678C380.314 256.678 380.122 256.598 379.98 256.456C379.838 256.314 379.758 256.122 379.758 255.921V211.275C379.758 211.074 379.838 210.882 379.98 210.74C380.122 210.598 380.314 210.518 380.515 210.518C380.716 210.518 380.908 210.598 381.05 210.74C381.192 210.882 381.272 211.074 381.272 211.275V255.921C381.272 256.122 381.192 256.314 381.05 256.456C380.908 256.598 380.716 256.678 380.515 256.678Z" fill="#CCCCCC"/>
<path d="M369.543 288.838C369.342 288.838 369.15 288.758 369.008 288.616C368.866 288.474 368.786 288.282 368.786 288.081V269.92C368.786 269.719 368.866 269.527 369.008 269.385C369.15 269.243 369.342 269.163 369.543 269.163C369.744 269.163 369.936 269.243 370.078 269.385C370.22 269.527 370.3 269.719 370.3 269.92V288.081C370.3 288.282 370.22 288.474 370.078 288.616C369.936 288.758 369.744 288.838 369.543 288.838Z" fill="#CCCCCC"/>
<path d="M407.757 313.66C407.556 313.66 407.364 313.581 407.222 313.439C407.08 313.297 407 313.104 407 312.904V294.743C407 294.542 407.08 294.349 407.222 294.207C407.364 294.066 407.556 293.986 407.757 293.986C407.957 293.986 408.15 294.066 408.292 294.207C408.434 294.349 408.513 294.542 408.513 294.743V312.904C408.513 313.104 408.434 313.297 408.292 313.439C408.15 313.581 407.957 313.66 407.757 313.66Z" fill="#CCCCCC"/>
<path d="M385.056 195.762C384.855 195.762 384.662 195.683 384.52 195.541C384.379 195.399 384.299 195.206 384.299 195.006V176.845C384.299 176.644 384.379 176.451 384.52 176.31C384.662 176.168 384.855 176.088 385.056 176.088C385.256 176.088 385.449 176.168 385.591 176.31C385.733 176.451 385.812 176.644 385.812 176.845V195.006C385.812 195.206 385.733 195.399 385.591 195.541C385.449 195.683 385.256 195.762 385.056 195.762Z" fill="#CCCCCC"/>
<path d="M347.22 203.708C347.019 203.708 346.827 203.628 346.685 203.486C346.543 203.344 346.463 203.152 346.463 202.951V184.79C346.463 184.589 346.543 184.397 346.685 184.255C346.827 184.113 347.019 184.033 347.22 184.033C347.421 184.033 347.613 184.113 347.755 184.255C347.897 184.397 347.977 184.589 347.977 184.79V202.951C347.977 203.152 347.897 203.344 347.755 203.486C347.613 203.628 347.421 203.708 347.22 203.708Z" fill="#CCCCCC"/>
<path d="M413.054 205.6C412.853 205.6 412.66 205.52 412.519 205.378C412.377 205.236 412.297 205.044 412.297 204.843V186.682C412.297 186.481 412.377 186.289 412.518 186.147C412.66 186.005 412.853 185.925 413.054 185.925C413.254 185.925 413.447 186.005 413.589 186.147C413.731 186.289 413.81 186.481 413.81 186.682V204.843C413.81 205.044 413.731 205.236 413.589 205.378C413.447 205.52 413.254 205.6 413.054 205.6Z" fill="#CCCCCC"/>
<path d="M411.54 262.353C411.34 262.353 411.147 262.273 411.005 262.131C410.863 261.99 410.784 261.797 410.784 261.596V239.652C410.784 239.451 410.863 239.259 411.005 239.117C411.147 238.975 411.34 238.895 411.54 238.895C411.741 238.895 411.934 238.975 412.075 239.117C412.217 239.259 412.297 239.451 412.297 239.652V261.596C412.297 261.797 412.217 261.99 412.075 262.131C411.934 262.273 411.741 262.353 411.54 262.353Z" fill="#CCCCCC"/>
<path d="M358.571 317.444C358.37 317.444 358.178 317.364 358.036 317.222C357.894 317.08 357.814 316.888 357.814 316.687V294.743C357.814 294.542 357.894 294.349 358.036 294.207C358.177 294.066 358.37 293.986 358.571 293.986C358.771 293.986 358.964 294.066 359.106 294.207C359.248 294.349 359.327 294.542 359.327 294.743V316.687C359.327 316.888 359.248 317.08 359.106 317.222C358.964 317.364 358.771 317.444 358.571 317.444Z" fill="#CCCCCC"/>
<path d="M397.92 279.23C397.719 279.23 397.527 279.15 397.385 279.008C397.243 278.866 397.163 278.674 397.163 278.473V245.935C397.163 245.734 397.243 245.542 397.385 245.4C397.527 245.258 397.719 245.178 397.92 245.178C398.12 245.178 398.313 245.258 398.455 245.4C398.597 245.542 398.677 245.734 398.677 245.935V278.473C398.676 278.674 398.597 278.866 398.455 279.008C398.313 279.15 398.12 279.23 397.92 279.23Z" fill="#CCCCCC"/>
<path d="M399.433 226.031C399.232 226.031 399.04 225.951 398.898 225.809C398.756 225.667 398.676 225.475 398.676 225.274V180.628C398.676 180.427 398.756 180.235 398.898 180.093C399.04 179.951 399.232 179.871 399.433 179.871C399.634 179.871 399.826 179.951 399.968 180.093C400.11 180.235 400.19 180.427 400.19 180.628V225.274C400.19 225.475 400.11 225.667 399.968 225.809C399.826 225.951 399.634 226.031 399.433 226.031Z" fill="#CCCCCC"/>
<path d="M45.5342 266.798V232.533H52.7998V266.798H45.5342ZM91.6357 240.103C94.6045 240.103 96.8467 240.869 98.3623 242.4C99.8936 243.916 100.659 246.353 100.659 249.713V266.798H93.4873V251.494C93.4873 249.619 93.167 248.205 92.5264 247.252C91.8857 246.298 90.8936 245.822 89.5498 245.822C87.6592 245.822 86.3154 246.502 85.5186 247.861C84.7217 249.205 84.3232 251.134 84.3232 253.65V266.798H77.1748V251.494C77.1748 250.244 77.0342 249.197 76.7529 248.353C76.4717 247.509 76.042 246.877 75.4639 246.455C74.8857 246.033 74.1436 245.822 73.2373 245.822C71.9092 245.822 70.8623 246.158 70.0967 246.83C69.3467 247.486 68.8076 248.463 68.4795 249.759C68.167 251.041 68.0107 252.611 68.0107 254.47V266.798H60.8623V240.595H66.3232L67.2842 243.947H67.6826C68.2139 243.041 68.8779 242.306 69.6748 241.744C70.4873 241.181 71.3779 240.767 72.3467 240.502C73.3154 240.236 74.2998 240.103 75.2998 240.103C77.2217 240.103 78.8467 240.416 80.1748 241.041C81.5186 241.666 82.5498 242.634 83.2686 243.947H83.9014C84.6826 242.603 85.7842 241.627 87.2061 241.017C88.6436 240.408 90.1201 240.103 91.6357 240.103ZM118.753 240.056C122.269 240.056 124.964 240.822 126.839 242.353C128.714 243.884 129.651 246.213 129.651 249.338V266.798H124.659L123.276 263.236H123.089C122.339 264.173 121.573 264.939 120.792 265.533C120.011 266.127 119.112 266.564 118.097 266.845C117.081 267.127 115.847 267.267 114.394 267.267C112.847 267.267 111.456 266.97 110.222 266.377C109.003 265.783 108.042 264.877 107.339 263.658C106.636 262.423 106.284 260.861 106.284 258.97C106.284 256.189 107.261 254.142 109.214 252.83C111.167 251.502 114.097 250.767 118.003 250.627L122.55 250.486V249.338C122.55 247.963 122.19 246.955 121.472 246.314C120.753 245.673 119.753 245.353 118.472 245.353C117.206 245.353 115.964 245.533 114.745 245.892C113.526 246.252 112.308 246.705 111.089 247.252L108.722 242.423C110.112 241.689 111.667 241.111 113.386 240.689C115.12 240.267 116.909 240.056 118.753 240.056ZM122.55 254.658L119.784 254.752C117.472 254.814 115.862 255.228 114.956 255.994C114.065 256.759 113.62 257.767 113.62 259.017C113.62 260.111 113.94 260.892 114.581 261.361C115.222 261.814 116.058 262.041 117.089 262.041C118.62 262.041 119.909 261.588 120.956 260.681C122.019 259.775 122.55 258.486 122.55 256.814V254.658ZM144.698 278.33C141.042 278.33 138.245 277.689 136.308 276.408C134.386 275.142 133.425 273.361 133.425 271.064C133.425 269.486 133.917 268.166 134.901 267.103C135.886 266.041 137.331 265.283 139.237 264.83C138.503 264.517 137.862 264.009 137.315 263.306C136.769 262.588 136.495 261.83 136.495 261.033C136.495 260.033 136.784 259.205 137.362 258.548C137.94 257.877 138.776 257.22 139.87 256.58C138.495 255.986 137.401 255.033 136.589 253.72C135.792 252.408 135.394 250.861 135.394 249.08C135.394 247.173 135.808 245.556 136.636 244.228C137.479 242.884 138.698 241.861 140.292 241.158C141.901 240.455 143.854 240.103 146.151 240.103C146.636 240.103 147.198 240.134 147.839 240.197C148.479 240.259 149.065 240.33 149.597 240.408C150.144 240.486 150.511 240.548 150.698 240.595H159.839V244.228L155.737 245.283C156.112 245.861 156.394 246.478 156.581 247.134C156.769 247.791 156.862 248.486 156.862 249.22C156.862 252.033 155.878 254.228 153.909 255.806C151.956 257.369 149.237 258.15 145.753 258.15C144.925 258.103 144.144 258.041 143.409 257.963C143.05 258.244 142.776 258.541 142.589 258.853C142.401 259.166 142.308 259.494 142.308 259.838C142.308 260.181 142.448 260.47 142.729 260.705C143.026 260.923 143.464 261.095 144.042 261.22C144.636 261.33 145.37 261.384 146.245 261.384H150.698C153.573 261.384 155.761 262.002 157.261 263.236C158.776 264.47 159.534 266.283 159.534 268.673C159.534 271.736 158.253 274.111 155.69 275.798C153.144 277.486 149.479 278.33 144.698 278.33ZM145.003 273.666C146.706 273.666 148.167 273.502 149.386 273.173C150.62 272.861 151.565 272.408 152.222 271.814C152.878 271.236 153.206 270.541 153.206 269.728C153.206 269.072 153.011 268.548 152.62 268.158C152.245 267.783 151.667 267.517 150.886 267.361C150.12 267.205 149.136 267.127 147.933 267.127H144.229C143.354 267.127 142.565 267.267 141.862 267.548C141.175 267.83 140.628 268.22 140.222 268.72C139.815 269.236 139.612 269.83 139.612 270.502C139.612 271.486 140.081 272.259 141.019 272.822C141.972 273.384 143.3 273.666 145.003 273.666ZM146.151 253.791C147.495 253.791 148.479 253.377 149.104 252.548C149.729 251.72 150.042 250.595 150.042 249.173C150.042 247.595 149.714 246.416 149.058 245.634C148.417 244.838 147.448 244.439 146.151 244.439C144.839 244.439 143.854 244.838 143.198 245.634C142.542 246.416 142.214 247.595 142.214 249.173C142.214 250.595 142.534 251.72 143.175 252.548C143.831 253.377 144.823 253.791 146.151 253.791ZM174.979 240.103C177.401 240.103 179.487 240.572 181.237 241.509C182.987 242.431 184.339 243.775 185.292 245.541C186.245 247.306 186.722 249.463 186.722 252.009V255.478H169.823C169.901 257.494 170.503 259.08 171.628 260.236C172.769 261.377 174.347 261.947 176.362 261.947C178.034 261.947 179.565 261.775 180.956 261.431C182.347 261.088 183.776 260.572 185.245 259.884V265.416C183.948 266.056 182.589 266.525 181.167 266.822C179.761 267.119 178.05 267.267 176.034 267.267C173.409 267.267 171.081 266.783 169.05 265.814C167.034 264.845 165.448 263.369 164.292 261.384C163.151 259.4 162.581 256.9 162.581 253.884C162.581 250.822 163.097 248.275 164.128 246.244C165.175 244.197 166.628 242.666 168.487 241.65C170.347 240.619 172.511 240.103 174.979 240.103ZM175.026 245.189C173.636 245.189 172.479 245.634 171.558 246.525C170.651 247.416 170.128 248.814 169.987 250.72H180.019C180.003 249.658 179.808 248.713 179.433 247.884C179.073 247.056 178.526 246.4 177.792 245.916C177.073 245.431 176.151 245.189 175.026 245.189ZM75.9326 331.798H66.6982L51.792 305.877H51.5811C51.6436 306.955 51.6982 308.041 51.7451 309.134C51.792 310.228 51.8389 311.322 51.8857 312.416C51.9326 313.494 51.9795 314.58 52.0264 315.673V331.798H45.5342V297.533H54.6982L69.5811 323.197H69.7451C69.7139 322.134 69.6748 321.08 69.6279 320.033C69.5811 318.986 69.5342 317.939 69.4873 316.892C69.4561 315.845 69.4248 314.798 69.3936 313.752V297.533H75.9326V331.798ZM107.831 318.65C107.831 320.838 107.534 322.775 106.94 324.463C106.362 326.15 105.511 327.58 104.386 328.752C103.276 329.908 101.933 330.783 100.354 331.377C98.792 331.97 97.0264 332.267 95.0576 332.267C93.2139 332.267 91.5186 331.97 89.9717 331.377C88.4404 330.783 87.1045 329.908 85.9639 328.752C84.8389 327.58 83.9639 326.15 83.3389 324.463C82.7295 322.775 82.4248 320.838 82.4248 318.65C82.4248 315.744 82.9404 313.283 83.9717 311.267C85.0029 309.252 86.4717 307.72 88.3779 306.673C90.2842 305.627 92.5576 305.103 95.1982 305.103C97.6514 305.103 99.8232 305.627 101.714 306.673C103.62 307.72 105.112 309.252 106.19 311.267C107.284 313.283 107.831 315.744 107.831 318.65ZM89.7139 318.65C89.7139 320.369 89.9014 321.814 90.2764 322.986C90.6514 324.158 91.2373 325.041 92.0342 325.634C92.8311 326.228 93.8701 326.525 95.1514 326.525C96.417 326.525 97.4404 326.228 98.2217 325.634C99.0186 325.041 99.5967 324.158 99.9561 322.986C100.331 321.814 100.519 320.369 100.519 318.65C100.519 316.916 100.331 315.478 99.9561 314.338C99.5967 313.181 99.0186 312.314 98.2217 311.736C97.4248 311.158 96.3857 310.869 95.1045 310.869C93.2139 310.869 91.8389 311.517 90.9795 312.814C90.1357 314.111 89.7139 316.056 89.7139 318.65ZM124.776 326.572C125.558 326.572 126.315 326.494 127.05 326.338C127.8 326.181 128.542 325.986 129.276 325.752V331.072C128.511 331.416 127.558 331.697 126.417 331.916C125.292 332.15 124.058 332.267 122.714 332.267C121.151 332.267 119.745 332.017 118.495 331.517C117.261 331.002 116.284 330.119 115.565 328.869C114.862 327.603 114.511 325.845 114.511 323.595V310.963H111.089V307.939L115.026 305.548L117.089 300.017H121.659V305.595H128.995V310.963H121.659V323.595C121.659 324.595 121.94 325.345 122.503 325.845C123.081 326.33 123.839 326.572 124.776 326.572ZM154.776 331.798H147.628V297.533H167.269V303.486H154.776V312.322H166.401V318.252H154.776V331.798ZM197.222 318.65C197.222 320.838 196.925 322.775 196.331 324.463C195.753 326.15 194.901 327.58 193.776 328.752C192.667 329.908 191.323 330.783 189.745 331.377C188.183 331.97 186.417 332.267 184.448 332.267C182.604 332.267 180.909 331.97 179.362 331.377C177.831 330.783 176.495 329.908 175.354 328.752C174.229 327.58 173.354 326.15 172.729 324.463C172.12 322.775 171.815 320.838 171.815 318.65C171.815 315.744 172.331 313.283 173.362 311.267C174.394 309.252 175.862 307.72 177.769 306.673C179.675 305.627 181.948 305.103 184.589 305.103C187.042 305.103 189.214 305.627 191.104 306.673C193.011 307.72 194.503 309.252 195.581 311.267C196.675 313.283 197.222 315.744 197.222 318.65ZM179.104 318.65C179.104 320.369 179.292 321.814 179.667 322.986C180.042 324.158 180.628 325.041 181.425 325.634C182.222 326.228 183.261 326.525 184.542 326.525C185.808 326.525 186.831 326.228 187.612 325.634C188.409 325.041 188.987 324.158 189.347 322.986C189.722 321.814 189.909 320.369 189.909 318.65C189.909 316.916 189.722 315.478 189.347 314.338C188.987 313.181 188.409 312.314 187.612 311.736C186.815 311.158 185.776 310.869 184.495 310.869C182.604 310.869 181.229 311.517 180.37 312.814C179.526 314.111 179.104 316.056 179.104 318.65ZM227.175 305.595V331.798H221.69L220.729 328.447H220.354C219.792 329.338 219.089 330.064 218.245 330.627C217.401 331.189 216.472 331.603 215.456 331.869C214.44 332.134 213.386 332.267 212.292 332.267C210.417 332.267 208.784 331.939 207.394 331.283C206.003 330.611 204.917 329.572 204.136 328.166C203.37 326.759 202.987 324.931 202.987 322.681V305.595H210.136V320.9C210.136 322.775 210.472 324.189 211.144 325.142C211.815 326.095 212.886 326.572 214.354 326.572C215.808 326.572 216.948 326.244 217.776 325.588C218.604 324.916 219.183 323.939 219.511 322.658C219.854 321.361 220.026 319.783 220.026 317.923V305.595H227.175ZM249.558 305.103C252.354 305.103 254.604 305.869 256.308 307.4C258.011 308.916 258.862 311.353 258.862 314.713V331.798H251.714V316.494C251.714 314.619 251.37 313.205 250.683 312.252C250.011 311.298 248.948 310.822 247.495 310.822C245.308 310.822 243.815 311.564 243.019 313.048C242.222 314.533 241.823 316.673 241.823 319.47V331.798H234.675V305.595H240.136L241.097 308.947H241.495C242.058 308.041 242.753 307.306 243.581 306.744C244.425 306.181 245.354 305.767 246.37 305.502C247.401 305.236 248.464 305.103 249.558 305.103ZM274.519 332.267C271.597 332.267 269.214 331.127 267.37 328.845C265.542 326.548 264.628 323.181 264.628 318.744C264.628 314.259 265.558 310.869 267.417 308.572C269.276 306.259 271.706 305.103 274.706 305.103C275.956 305.103 277.058 305.275 278.011 305.619C278.964 305.963 279.784 306.423 280.472 307.002C281.175 307.58 281.769 308.228 282.253 308.947H282.487C282.394 308.447 282.276 307.713 282.136 306.744C282.011 305.759 281.948 304.752 281.948 303.72V295.33H289.12V331.798H283.636L282.253 328.4H281.948C281.495 329.119 280.925 329.775 280.237 330.369C279.565 330.947 278.761 331.408 277.823 331.752C276.886 332.095 275.784 332.267 274.519 332.267ZM277.026 326.572C278.979 326.572 280.354 325.994 281.151 324.838C281.964 323.666 282.394 321.908 282.44 319.564V318.791C282.44 316.244 282.05 314.298 281.269 312.955C280.487 311.595 279.034 310.916 276.909 310.916C275.331 310.916 274.097 311.595 273.206 312.955C272.315 314.314 271.87 316.275 271.87 318.838C271.87 321.4 272.315 323.33 273.206 324.627C274.112 325.923 275.386 326.572 277.026 326.572Z" fill="#E6E6E6"/>
</svg>
